# xmcd CD database file
#
# Track frame offsets:
#	150
#	52345
#	85804
#	110538
#	152370
#	173540
#
# Disc length: 3136 seconds
#
# Revision: 0
# Processed by: cddbd v1.5.2PL0 Copyright (c) Steve Scherf et al.
# Submitted via: CDex 1.51
#
DISCID=400c3e06
DTITLE=Dr. L. Subramaniam - Karsten Vogel - Meetings
DYEAR=2007
DGENRE=Jazz
TTITLE0=Morning Beauty
TTITLE1=M G Road
TTITLE2=Tandoori
TTITLE3=Five o'clock Twins
TTITLE4=Robannas Playground
TTITLE5=Afternoon Silk
EXTD=YEAR: 2007
EXTT0=
EXTT1=
EXTT2=
EXTT3=
EXTT4=
EXTT5=
PLAYORDER=
